<svg width="194" height="72" viewBox="0 0 194 72" fill="none" xmlns="http://www.w3.org/2000/svg">
<path d="M160.249 38.6667H158.785L157.994 40.8757H159.158L160.249 38.6667Z" fill="white"/>
<path d="M103.293 23.0102C102.857 22.7283 102.37 22.5032 101.831 22.3403C101.292 22.1773 100.737 22.0971 100.167 22.0971C99.3707 22.0971 98.6346 22.2342 97.9528 22.511C97.271 22.7878 96.6774 23.1654 96.1771 23.6465C95.6742 24.1276 95.2776 24.6915 94.9847 25.3355C94.6918 25.9796 94.5466 26.6702 94.5466 27.4074V35.5758H97.9191V27.4074C97.9191 27.1099 97.9787 26.8306 98.098 26.5693C98.2172 26.3081 98.3779 26.0805 98.5827 25.8891C98.7849 25.6977 99.0208 25.5502 99.2904 25.4442C99.56 25.3381 99.8529 25.2864 100.167 25.2864C100.812 25.2864 101.338 25.4959 101.75 25.9123C102.163 26.3314 102.383 26.8306 102.414 27.41V35.5784H105.787V27.41C105.787 26.5047 105.561 25.664 105.113 24.8932C104.664 24.1198 104.058 23.4913 103.293 23.0102Z" fill="white"/>
<path d="M111.881 26.3676C112.27 26.0003 112.705 25.7287 113.185 25.5502C113.664 25.3743 114.152 25.2838 114.647 25.2838C115.155 25.2838 115.65 25.3717 116.13 25.5502C116.609 25.7287 117.045 26.0003 117.433 26.3676L119.816 24.1147C119.111 23.4499 118.312 22.9455 117.42 22.6067C116.529 22.2679 115.603 22.0971 114.644 22.0971C113.745 22.0971 112.856 22.2627 111.979 22.5963C111.103 22.93 110.323 23.3956 109.641 23.9983C108.959 24.6009 108.405 25.3252 107.977 26.1762C107.549 27.0272 107.337 27.9687 107.337 29.0007C107.337 29.8362 107.505 30.6639 107.842 31.4864C108.179 32.309 108.666 33.0435 109.304 33.6954C109.942 34.3472 110.709 34.8774 111.609 35.2887C112.508 35.7 113.519 35.9043 114.644 35.9043C115.603 35.9043 116.529 35.7336 117.42 35.3947C118.312 35.0559 119.111 34.5515 119.816 33.8868L117.433 31.6339C117.045 32.0011 116.609 32.2753 116.13 32.4512C115.65 32.6297 115.155 32.7176 114.647 32.7176C114.198 32.7176 113.737 32.6323 113.265 32.4616C112.793 32.2908 112.368 32.0477 111.995 31.7296C111.619 31.4114 111.313 31.0234 111.072 30.5604C110.834 30.1 110.712 29.5801 110.712 28.9981C110.712 28.517 110.81 28.0489 111.005 27.5962C111.199 27.1461 111.492 26.7349 111.881 26.3676Z" fill="white"/>
<path d="M131.577 23.287C130.991 22.9197 130.356 22.63 129.666 22.4179C128.977 22.2058 128.251 22.0997 127.486 22.0997C126.496 22.0997 125.56 22.2782 124.676 22.63C123.792 22.9843 123.017 23.4732 122.348 24.0966C121.682 24.7199 121.153 25.4494 120.764 26.2848C120.376 27.1203 120.181 28.0256 120.181 29.0033C120.181 29.9681 120.373 30.8656 120.754 31.7011C121.135 32.5366 121.661 33.266 122.328 33.8894C122.994 34.5127 123.771 35.0042 124.655 35.3663C125.539 35.7284 126.483 35.9095 127.489 35.9095C128.479 35.9095 129.417 35.7284 130.309 35.3663C131.201 35.0068 131.976 34.5127 132.637 33.8894C133.295 33.266 133.822 32.5366 134.21 31.7011C134.599 30.8656 134.794 29.9681 134.794 29.0033C134.794 27.8005 134.498 26.7064 133.905 25.7209C133.311 24.7355 132.536 23.9259 131.577 23.287ZM131.105 30.444C130.804 31.1243 130.33 31.6727 129.677 32.0891C129.023 32.5081 128.295 32.7176 127.484 32.7176C126.929 32.7176 126.41 32.6193 125.931 32.4202C125.451 32.221 125.034 31.9572 124.684 31.6235C124.331 31.2898 124.054 30.8993 123.852 30.444C123.65 29.9914 123.549 29.5103 123.549 29.0007C123.549 28.4912 123.65 28.0101 123.852 27.5574C124.054 27.1048 124.337 26.7064 124.694 26.3676C125.055 26.0287 125.472 25.7623 125.954 25.5709C126.434 25.3795 126.944 25.2838 127.484 25.2838C128.007 25.2838 128.507 25.3795 128.979 25.5709C129.451 25.7623 129.868 26.0236 130.226 26.3572C130.586 26.6909 130.874 27.0841 131.092 27.5367C131.31 27.9894 131.419 28.4782 131.419 29.0033C131.419 29.4973 131.315 29.9784 131.105 30.444Z" fill="white"/>
<path d="M145.279 23.0102C144.844 22.7283 144.356 22.5032 143.817 22.3403C143.278 22.1773 142.723 22.0971 142.153 22.0971C141.357 22.0971 140.621 22.2342 139.939 22.511C139.257 22.7878 138.666 23.1654 138.164 23.6465C137.661 24.1276 137.264 24.6915 136.971 25.3355C136.678 25.9796 136.533 26.6702 136.533 27.4074V35.5758H139.906V27.4074C139.906 27.1099 139.965 26.8306 140.084 26.5693C140.204 26.3081 140.364 26.0805 140.569 25.8891C140.771 25.6977 141.007 25.5502 141.277 25.4442C141.546 25.3381 141.839 25.2864 142.153 25.2864C142.798 25.2864 143.325 25.4959 143.737 25.9123C144.149 26.3314 144.369 26.8306 144.4 27.41V35.5784H147.773V27.41C147.773 26.5047 147.547 25.664 147.099 24.8932C146.648 24.1198 146.041 23.4913 145.279 23.0102Z" fill="white"/>
<path d="M149.424 25.6123H152.797V35.5758H156.169V25.6123H159.542V22.4256H149.424V25.6123Z" fill="white"/>
<path d="M162.103 25.1364C161.714 25.6899 161.408 26.29 161.193 26.9418C160.975 27.5936 160.866 28.2816 160.866 29.0007V35.5758H164.239V29.0007C164.239 28.4912 164.34 28.0126 164.542 27.5678C164.744 27.1229 165.022 26.7297 165.374 26.3883C165.727 26.0494 166.142 25.7804 166.621 25.5813C167.101 25.3821 167.619 25.2838 168.174 25.2838V22.0971C166.93 22.0971 165.776 22.3713 164.711 22.9145C163.645 23.4603 162.777 24.2 162.103 25.1364Z" fill="white"/>
<path d="M180.352 23.287C179.766 22.9197 179.131 22.63 178.442 22.4179C177.752 22.2058 177.026 22.0997 176.262 22.0997C175.271 22.0997 174.336 22.2782 173.452 22.63C172.568 22.9843 171.793 23.4732 171.124 24.0966C170.458 24.7199 169.929 25.4494 169.54 26.2848C169.151 27.1203 168.957 28.0256 168.957 29.0033C168.957 29.9681 169.149 30.8656 169.53 31.7011C169.911 32.5366 170.437 33.266 171.103 33.8894C171.769 34.5127 172.544 35.0042 173.428 35.3663C174.312 35.7284 175.256 35.9095 176.262 35.9095C177.252 35.9095 178.19 35.7284 179.082 35.3663C179.974 35.0068 180.749 34.5127 181.41 33.8894C182.068 33.266 182.594 32.5366 182.983 31.7011C183.372 30.8656 183.569 29.9681 183.569 29.0033C183.569 27.8005 183.274 26.7064 182.68 25.7209C182.086 24.7355 181.311 23.9259 180.352 23.287ZM179.878 30.444C179.577 31.1243 179.103 31.6727 178.449 32.0891C177.799 32.5081 177.068 32.7176 176.256 32.7176C175.702 32.7176 175.183 32.6193 174.704 32.4202C174.224 32.221 173.807 31.9572 173.457 31.6235C173.104 31.2898 172.827 30.8993 172.625 30.444C172.423 29.9914 172.321 29.5103 172.321 29.0007C172.321 28.4912 172.423 28.0101 172.625 27.5574C172.827 27.1048 173.109 26.7064 173.467 26.3676C173.827 26.0287 174.247 25.7623 174.727 25.5709C175.207 25.3795 175.717 25.2838 176.256 25.2838C176.78 25.2838 177.28 25.3795 177.752 25.5709C178.224 25.7623 178.641 26.0236 178.999 26.3572C179.359 26.6909 179.647 27.0841 179.865 27.5367C180.083 27.9894 180.191 28.4782 180.191 29.0033C180.194 29.4973 180.088 29.9784 179.878 30.444Z" fill="white"/>
<path d="M193.726 31.4347C193.72 31.3312 193.713 31.2303 193.7 31.1295C193.49 29.0654 191.608 27.4514 189.314 27.4514C189.288 27.4514 189.264 27.4488 189.238 27.4488C189.236 27.4488 189.233 27.4488 189.233 27.4488C189.212 27.4514 189.189 27.4514 189.168 27.4514C188.624 27.4514 188.178 27.066 188.131 26.5745C188.129 26.546 188.126 26.5202 188.126 26.4917C188.126 26.4607 188.129 26.4297 188.131 26.3986C188.183 25.9123 188.627 25.5321 189.168 25.5321C189.179 25.5321 189.189 25.5321 189.202 25.5347C189.215 25.5347 189.228 25.5321 189.241 25.5321H193.176V24.7846V22.4256H189.241C189.228 22.4256 189.218 22.4256 189.205 22.4256C188.603 22.4308 188.036 22.5394 187.499 22.7567C186.952 22.9766 186.475 23.274 186.071 23.6465C185.666 24.019 185.345 24.4587 185.104 24.9631C184.902 25.3898 184.793 25.8425 184.762 26.3133C184.759 26.3417 184.759 26.3702 184.759 26.3986C184.759 26.4297 184.756 26.4607 184.756 26.4917C184.756 26.515 184.759 26.5409 184.759 26.5642C184.759 26.6004 184.759 26.6392 184.762 26.6754C184.767 26.7633 184.772 26.8513 184.782 26.9392C184.782 26.9418 184.782 26.9418 184.782 26.9444C184.832 27.3143 184.933 27.6712 185.091 28.0101C185.272 28.4006 185.508 28.7524 185.796 29.0705C185.876 29.1585 185.957 29.2439 186.045 29.3266C186.449 29.7068 186.926 30.0069 187.473 30.2293C188.02 30.4492 188.608 30.5604 189.238 30.5604C189.246 30.5604 189.254 30.5604 189.262 30.5604C189.267 30.5604 189.272 30.5604 189.275 30.5604C189.288 30.5604 189.301 30.5578 189.314 30.5578C189.855 30.5578 190.301 30.9432 190.345 31.4321C190.348 31.458 190.35 31.4864 190.35 31.5123C190.35 31.5407 190.348 31.5666 190.345 31.5951C190.299 32.0839 189.855 32.4667 189.314 32.4667C189.301 32.4667 189.29 32.4667 189.277 32.4641C189.264 32.4641 189.251 32.4667 189.238 32.4667H185.303V33.1936V35.5758H189.238C189.321 35.5758 189.402 35.5732 189.482 35.5706C191.444 35.5034 193.072 34.2489 193.562 32.5676C193.562 32.565 193.565 32.5624 193.565 32.5573C193.588 32.4797 193.606 32.4021 193.624 32.3245C193.645 32.2313 193.663 32.1382 193.679 32.0425C193.702 31.8951 193.718 31.7451 193.723 31.5925L193.726 31.4347Z" fill="white"/>
<path d="M92.3666 25.6123V22.4256H86.4019H83.4986H83.0294V35.5758H83.4986H86.4019H92.3666V32.3917H86.4019V30.5087H91.1638V27.6298H86.4019V25.6123H92.3666Z" fill="white"/>
<path d="M86.8606 46.9645C86.8606 47.9707 86.4018 48.5268 85.5697 48.5268C84.7376 48.5268 84.2787 47.9707 84.2787 46.9645V42.0836H82.9982V46.9645C82.9982 48.7104 83.9366 49.7114 85.5723 49.7114C87.208 49.7114 88.1464 48.7104 88.1464 46.9645V42.0836H86.8658V46.9645H86.8606Z" fill="white"/>
<path d="M94.9536 47.0886L92.3743 42.0836H91.1093V49.608H92.3898V44.6133L94.9691 49.608H96.2341V42.0836H94.9536V47.0886Z" fill="white"/>
<path d="M99.0985 43.2683H101.133V48.4207H99.0985V49.608H104.452V48.4207H102.417V43.2683H104.452V42.0836H99.0985V43.2683Z" fill="white"/>
<path d="M109.877 47.4689L108.197 42.0836H106.899L109.283 49.608H110.463L112.848 42.0836H111.549L109.877 47.4689Z" fill="white"/>
<path d="M115.616 49.608H120.658V48.4207H116.897V46.1782H120.285V44.9909H116.897V43.2683H120.658V42.0836H115.616V49.608Z" fill="white"/>
<path d="M128.689 44.1296C128.689 42.8492 127.844 42.0836 126.428 42.0836H123.72V49.608H125V46.1782H125.718L127.839 49.608H129.285L127.126 46.1083C128.124 45.8859 128.689 45.1772 128.689 44.1296ZM125.003 43.2683H126.428C127.123 43.2683 127.408 43.5166 127.408 44.1296C127.408 44.74 127.126 44.9909 126.428 44.9909H125.003V43.2683Z" fill="white"/>
<path d="M134.34 45.0711C133.233 44.7504 133.01 44.4866 133.01 44.1606C133.01 43.5554 133.472 43.1622 134.187 43.1622C134.983 43.1622 135.589 43.6925 135.732 44.515L135.763 44.6987L136.917 44.4193L136.896 44.2615C136.707 42.8958 135.621 41.9776 134.19 41.9776C132.72 41.9776 131.732 42.8544 131.732 44.1606C131.732 45.1798 132.398 45.7902 134.029 46.2739C135.408 46.6774 135.691 47.0136 135.691 47.3939C135.691 48.0819 135.102 48.5268 134.192 48.5268C133.186 48.5268 132.536 47.9138 132.536 46.9645V46.7912H131.307V46.9645C131.307 48.607 132.466 49.7114 134.192 49.7114C135.856 49.7114 136.974 48.7803 136.974 47.3939C136.969 46.3023 136.232 45.6531 134.34 45.0711Z" fill="white"/>
<path d="M139.615 43.2683H141.653V48.4207H139.615V49.608H144.968V48.4207H142.933V43.2683H144.968V42.0836H139.615V43.2683Z" fill="white"/>
<path d="M147.719 43.2683H149.756V49.608H151.037V43.2683H153.071V42.0836H147.719V43.2683Z" fill="white"/>
<path d="M157.906 42.0836L155.521 49.608H156.82L157.463 47.5568H159.536L160.169 49.608H161.468L159.083 42.0836H157.906ZM159.168 46.3722H157.831L158.5 43.8296L159.168 46.3722Z" fill="white"/>
<path d="M169.206 44.1296C169.206 42.8492 168.36 42.0836 166.945 42.0836H164.236V49.608H165.517V46.1782H166.235L168.355 49.608H169.802L167.642 46.1083C168.64 45.8859 169.206 45.1772 169.206 44.1296ZM165.519 43.2683H166.945C167.642 43.2683 167.925 43.5166 167.925 44.1296C167.925 44.74 167.642 44.9909 166.945 44.9909H165.519V43.2683Z" fill="white"/>
<path d="M172.029 43.2683H174.066V48.4207H172.029V49.608H177.384V48.4207H175.347V43.2683H177.384V42.0836H172.029V43.2683Z" fill="white"/>
<path d="M182.81 41.9802C180.977 41.9802 179.924 43.3898 179.924 45.8471C179.924 48.3043 180.977 49.714 182.81 49.714C184.642 49.714 185.695 48.3043 185.695 45.8471C185.695 43.3873 184.642 41.9802 182.81 41.9802ZM182.81 48.5268C181.415 48.5268 181.205 46.8481 181.205 45.8445C181.205 44.8435 181.412 43.1648 182.81 43.1648C184.204 43.1648 184.414 44.8435 184.414 45.8445C184.412 46.8481 184.204 48.5268 182.81 48.5268Z" fill="white"/>
<path d="M191.066 45.0711C189.959 44.7504 189.736 44.4866 189.736 44.1606C189.736 43.5554 190.197 43.1622 190.913 43.1622C191.709 43.1622 192.315 43.6925 192.458 44.515L192.489 44.6987L193.643 44.4193L193.622 44.2615C193.433 42.8958 192.346 41.9776 190.916 41.9776C189.446 41.9776 188.458 42.8544 188.458 44.1606C188.458 45.1798 189.124 45.7902 190.755 46.2739C192.134 46.6774 192.416 47.0136 192.416 47.3939C192.416 48.0819 191.828 48.5268 190.918 48.5268C189.912 48.5268 189.262 47.9138 189.262 46.9645V46.7912H188.033V46.9645C188.033 48.607 189.192 49.7114 190.918 49.7114C192.582 49.7114 193.7 48.7803 193.7 47.3939C193.694 46.3023 192.958 45.6531 191.066 45.0711Z" fill="white"/>
<path d="M35.9673 0C16.103 0 0 16.0652 0 35.8888C0 55.7097 16.103 71.7776 35.9673 71.7776C55.829 71.7776 71.9319 55.7097 71.9345 35.8888C71.9319 16.0678 55.829 0 35.9673 0ZM8.96136 26.1244L11.2477 23.8431L15.8204 19.2829L18.1068 21.5617L13.5341 26.1244L15.0583 27.6454L18.817 23.8948L21.0412 26.1141L17.285 29.8646L18.8715 31.445L23.4416 26.8823L25.7279 29.1637L21.1526 33.729L18.8663 36.0103L16.5825 33.729L11.2503 28.4058L8.96136 26.1244ZM24.1648 51.8506L21.557 49.9442L15.1905 58.6196L12.5827 56.7133L18.9492 48.0379L16.3415 46.1316L18.2493 43.5295L26.0753 49.2459L24.1648 51.8506ZM26.7493 16.7869L32.0737 10.0204C32.5351 9.43325 33.0769 8.97025 33.7016 8.62883C34.3264 8.28998 34.9796 8.0753 35.6588 7.98994C36.338 7.90458 37.0223 7.95114 37.7092 8.13479C38.3962 8.31585 39.0391 8.64435 39.6379 9.11252C40.0682 9.44877 40.4337 9.84193 40.7396 10.2894C41.0455 10.7369 41.271 11.2025 41.4213 11.6836C41.6961 12.519 41.7609 13.3778 41.6157 14.2572C41.4706 15.1367 41.1129 15.9385 40.5452 16.6576L35.2207 23.4241L32.6777 21.4298L38.0022 14.6659C38.3443 14.1848 38.4895 13.6571 38.4403 13.0803C38.391 12.5035 38.124 12.025 37.6393 11.6448C37.4034 11.4585 37.1493 11.3292 36.8797 11.2542C36.6101 11.1792 36.338 11.1585 36.0658 11.1895C35.7936 11.2232 35.5292 11.3085 35.2751 11.4456C35.0211 11.5827 34.8008 11.7715 34.6141 12.0069L29.2923 18.7786L26.7493 16.7869ZM31.6538 41.3672C31.0861 40.3713 30.8009 39.2617 30.8035 38.046C30.8009 37.0708 30.9876 36.1604 31.3635 35.3146C31.7367 34.4687 32.2396 33.7316 32.8721 33.1004C33.5046 32.4693 34.246 31.9701 35.1015 31.6054C35.9569 31.2407 36.859 31.0571 37.8052 31.0571C38.7669 31.0571 39.6742 31.2407 40.5218 31.6054C41.3695 31.9701 42.1135 32.4693 42.7537 33.0979C43.394 33.729 43.8969 34.4662 44.2624 35.3146C44.6279 36.1604 44.812 37.0708 44.812 38.046C44.812 39.0341 44.6253 39.9497 44.2495 40.7981C43.8762 41.6439 43.3681 42.3811 42.7304 43.0122C42.0901 43.6433 41.3461 44.1374 40.4985 44.4969C39.6508 44.8539 38.7539 45.0349 37.8078 45.0349C37.0742 45.0349 36.3768 44.9263 35.7158 44.7116C35.0548 44.4969 34.4456 44.202 33.8831 43.8296C32.9655 43.1855 32.2215 42.3656 31.6538 41.3672ZM46.5773 59.4732L44.8068 56.1495C44.6538 55.8572 44.4309 55.6787 44.1406 55.6114C43.8528 55.5468 43.5884 55.5752 43.3474 55.702C43.0544 55.8572 42.873 56.0744 42.803 56.3564C42.733 56.6357 42.7641 56.9047 42.9015 57.1582C43.1089 57.5488 43.254 57.9575 43.3318 58.3791C43.4096 58.8007 43.4277 59.2171 43.3862 59.6284C43.3007 60.3242 43.0622 60.9682 42.6708 61.5657C42.2794 62.1632 41.7635 62.6314 41.1154 62.9754C40.584 63.26 40.0293 63.4203 39.4616 63.4643C38.8887 63.5083 38.3392 63.4436 37.8129 63.2781C37.2841 63.1125 36.7994 62.8487 36.3561 62.4917C35.9154 62.1348 35.5577 61.7028 35.2881 61.1959L33.5176 57.8721L36.3717 56.359L38.1421 59.6827C38.2847 59.9491 38.4999 60.1224 38.785 60.2052C39.0728 60.288 39.3449 60.2621 39.599 60.1276C39.853 59.9905 40.0241 59.781 40.1148 59.4887C40.203 59.199 40.1822 58.9274 40.0474 58.674C39.7649 58.1411 39.599 57.5902 39.5575 57.0211C39.516 56.4521 39.5757 55.9037 39.7442 55.3761C39.9101 54.851 40.1693 54.3673 40.5218 53.9302C40.8744 53.4904 41.3099 53.1335 41.8309 52.8593C42.3519 52.5826 42.8963 52.4248 43.4666 52.3808C44.0369 52.3368 44.5864 52.3963 45.1101 52.5567C45.6363 52.7171 46.121 52.9731 46.5721 53.3275C47.0206 53.6819 47.3835 54.119 47.6582 54.6389L49.4261 57.9626L46.5773 59.4732ZM50.5071 13.9417L53.3197 15.5324C53.0553 15.9954 52.8972 16.4739 52.8479 16.9731C52.7961 17.4723 52.8375 17.9509 52.9697 18.4139C53.1045 18.8769 53.3197 19.3036 53.6152 19.6942C53.9133 20.0848 54.2866 20.4081 54.7376 20.6616L60.8294 24.1121L59.2326 26.9185L53.1434 23.468C52.5057 23.1059 51.951 22.6739 51.4792 22.167C51.0074 21.66 50.6186 21.1065 50.3179 20.5064C49.8124 19.4769 49.5713 18.3854 49.5946 17.2266C49.6154 16.073 49.9187 14.9763 50.5071 13.9417ZM63.2428 45.9506C62.8176 46.7628 62.2499 47.4689 61.55 48.0612C60.8475 48.6587 60.0388 49.0958 59.1263 49.3778L58.1672 46.2998C58.6701 46.142 59.1107 45.904 59.484 45.5807C59.8573 45.2574 60.1554 44.8823 60.3835 44.4504C60.6039 44.0313 60.7413 43.5761 60.7957 43.0872C60.8501 42.5958 60.7983 42.1017 60.6427 41.5974C60.4846 41.093 60.2461 40.6533 59.9273 40.2756C59.6084 39.898 59.23 39.5953 58.7997 39.3677C58.276 39.0936 57.755 38.9513 57.2366 38.9384C56.7155 38.9254 56.2282 39.0004 55.7771 39.1686C55.3261 39.3341 54.9165 39.5798 54.5536 39.898C54.1907 40.2187 53.9081 40.5705 53.7085 40.9507C53.4804 41.3801 53.3404 41.8405 53.2834 42.3319C53.229 42.8234 53.2808 43.32 53.4389 43.8218L50.3542 44.7789C50.069 43.871 49.9757 42.9579 50.0664 42.0422C50.1572 41.1266 50.419 40.2627 50.8467 39.4505C51.347 38.4986 51.9821 37.7382 52.752 37.1717C53.5219 36.6027 54.341 36.2018 55.2094 35.969C56.0778 35.7362 56.9592 35.6689 57.8457 35.7698C58.7323 35.8707 59.554 36.119 60.3032 36.5121C61.2312 36.9984 61.9803 37.6218 62.5532 38.3822C63.1287 39.1453 63.5305 39.9549 63.769 40.8188C64.0049 41.6801 64.0775 42.557 63.9867 43.4571C63.8908 44.3572 63.6446 45.1901 63.2428 45.9506Z" fill="white"/>
<path d="M34.3367 36.5846C34.6245 35.8965 35.0807 35.3404 35.7054 34.9188C36.3302 34.4972 37.0301 34.2851 37.8052 34.2825C38.3366 34.2851 38.8317 34.3834 39.2931 34.5851C39.7519 34.7843 40.1511 35.0533 40.4907 35.3921C40.8277 35.7284 41.0947 36.1267 41.2891 36.5846C41.4835 37.0424 41.5794 37.5312 41.5794 38.046C41.5794 38.5607 41.4835 39.0496 41.2891 39.5074C41.0947 39.9652 40.8251 40.3687 40.4803 40.7127C40.1356 41.0568 39.7338 41.3258 39.2724 41.5198C38.8135 41.7112 38.3262 41.8094 37.8077 41.8094C37.3049 41.8094 36.8279 41.7137 36.3768 41.5198C35.9232 41.3258 35.524 41.0619 35.1792 40.7257C34.8345 40.3868 34.5571 39.9885 34.3497 39.5307C34.1423 39.0703 34.0386 38.5788 34.0386 38.0486C34.0335 37.5442 34.1371 37.0579 34.3367 36.5846Z" fill="white"/>
<path d="M84.3902 63.754C84.1103 63.754 83.864 63.6919 83.654 63.5703C83.4441 63.4488 83.2807 63.2884 83.1667 63.0892C83.0526 62.8901 82.9956 62.665 82.9956 62.4141C82.9956 62.1865 83.0578 61.9589 83.1797 61.7339C83.3015 61.5088 83.4622 61.3226 83.6618 61.1752L86.1115 59.4292C86.3188 59.2818 86.4744 59.1111 86.5755 58.9145C86.6792 58.7179 86.731 58.5187 86.731 58.3118C86.731 58.0842 86.6792 57.885 86.5755 57.7195C86.4718 57.554 86.324 57.422 86.1322 57.3212C85.9404 57.2229 85.7045 57.1711 85.4219 57.1711H83.3948V56.0098H85.5775C86.0881 56.0098 86.5262 56.1132 86.8969 56.3202C87.265 56.5271 87.5502 56.8038 87.7498 57.1504C87.9494 57.497 88.0505 57.885 88.0505 58.3118C88.0505 58.7386 87.9597 59.124 87.7783 59.4628C87.5968 59.8017 87.3117 60.1069 86.9202 60.3811L84.4602 62.0624C84.4239 62.0908 84.3876 62.1296 84.3539 62.1788C84.3202 62.2279 84.3047 62.277 84.3047 62.3288C84.3047 62.409 84.3306 62.4736 84.3824 62.5228C84.4343 62.5719 84.5121 62.5952 84.6158 62.5952H88.2604V63.7566H84.3902V63.754Z" fill="white"/>
<path d="M92.3354 63.8859C91.7885 63.8859 91.2985 63.7669 90.8604 63.5264C90.4249 63.2884 90.0802 62.9625 89.8287 62.5538C89.5773 62.1451 89.4529 61.6873 89.4529 61.1778V58.5912C89.4529 58.0816 89.5799 57.6238 89.8287 57.2151C90.0802 56.8064 90.4224 56.4805 90.8604 56.2426C91.2959 56.002 91.7885 55.883 92.3354 55.883C92.8824 55.883 93.3697 56.002 93.7974 56.2426C94.2252 56.4831 94.5647 56.8064 94.8162 57.2151C95.0676 57.6238 95.1921 58.0816 95.1921 58.5912V61.1778C95.1921 61.6873 95.065 62.1451 94.8162 62.5538C94.5647 62.9625 94.2252 63.2884 93.7974 63.5264C93.3697 63.7669 92.8824 63.8859 92.3354 63.8859ZM92.3354 62.7245C92.6154 62.7245 92.872 62.6599 93.1001 62.5305C93.3282 62.4012 93.5123 62.2279 93.6549 62.0055C93.7948 61.783 93.8648 61.5399 93.8648 61.276V58.4903C93.8648 58.2187 93.7948 57.9756 93.6549 57.7609C93.5149 57.5462 93.3282 57.3729 93.1001 57.241C92.872 57.1091 92.6154 57.0418 92.3354 57.0418C92.0555 57.0418 91.7936 57.1091 91.5552 57.241C91.3141 57.3729 91.1248 57.5462 90.9849 57.7609C90.8449 57.9756 90.7749 58.2187 90.7749 58.4903V61.276C90.7749 61.5399 90.8449 61.7856 90.9849 62.0055C91.1248 62.2279 91.3167 62.4012 91.5552 62.5305C91.7936 62.6624 92.0555 62.7245 92.3354 62.7245Z" fill="white"/>
<path d="M97.7324 63.754C97.4525 63.754 97.2062 63.6919 96.9963 63.5703C96.7863 63.4488 96.623 63.2884 96.5089 63.0892C96.3949 62.8901 96.3378 62.665 96.3378 62.4141C96.3378 62.1865 96.4 61.9589 96.5219 61.7339C96.6437 61.5088 96.8044 61.3226 97.004 61.1752L99.4537 59.4292C99.6611 59.2818 99.8166 59.1111 99.9177 58.9145C100.021 58.7179 100.073 58.5187 100.073 58.3118C100.073 58.0842 100.021 57.885 99.9177 57.7195C99.814 57.554 99.6663 57.422 99.4744 57.3212C99.2826 57.2229 99.0467 57.1711 98.7642 57.1711H96.737V56.0098H98.9197C99.4304 56.0098 99.8685 56.1132 100.239 56.3202C100.607 56.5271 100.892 56.8038 101.092 57.1504C101.292 57.497 101.393 57.885 101.393 58.3118C101.393 58.7386 101.302 59.124 101.12 59.4628C100.939 59.8017 100.654 60.1069 100.262 60.3811L97.8024 62.0624C97.7661 62.0908 97.7299 62.1296 97.6962 62.1788C97.6625 62.2279 97.6469 62.277 97.6469 62.3288C97.6469 62.409 97.6728 62.4736 97.7247 62.5228C97.7765 62.5719 97.8543 62.5952 97.958 62.5952H101.603V63.7566H97.7324V63.754Z" fill="white"/>
<path d="M103.894 63.754C103.614 63.754 103.368 63.6919 103.158 63.5703C102.948 63.4488 102.785 63.2884 102.671 63.0892C102.557 62.8901 102.5 62.665 102.5 62.4141C102.5 62.1865 102.562 61.9589 102.684 61.7339C102.805 61.5088 102.966 61.3226 103.166 61.1752L105.615 59.4292C105.823 59.2818 105.978 59.1111 106.079 58.9145C106.183 58.7179 106.235 58.5187 106.235 58.3118C106.235 58.0842 106.183 57.885 106.079 57.7195C105.976 57.554 105.828 57.422 105.636 57.3212C105.444 57.2229 105.208 57.1711 104.926 57.1711H102.899V56.0098H105.081C105.592 56.0098 106.03 56.1132 106.401 56.3202C106.769 56.5271 107.054 56.8038 107.254 57.1504C107.453 57.497 107.554 57.885 107.554 58.3118C107.554 58.7386 107.464 59.124 107.282 59.4628C107.101 59.8017 106.816 60.1069 106.424 60.3811L103.964 62.0624C103.928 62.0908 103.892 62.1296 103.858 62.1788C103.824 62.2279 103.809 62.277 103.809 62.3288C103.809 62.409 103.835 62.4736 103.886 62.5228C103.938 62.5719 104.016 62.5952 104.12 62.5952H107.764V63.7566H103.894V63.754Z" fill="white"/>
</svg>
